<?xml version="1.0" encoding="UTF-8" standalone="no"?>
<!-- Created with Inkscape (http://www.inkscape.org/) -->

<svg
   version="1.1"
   id="svg2"
   width="1200"
   height="1200"
   viewBox="0 0 1200 1200"
   sodipodi:docname="zephyrus.svg"
   inkscape:version="1.2.2 (b0a8486541, 2022-12-01)"
   xmlns:inkscape="http://www.inkscape.org/namespaces/inkscape"
   xmlns:sodipodi="http://sodipodi.sourceforge.net/DTD/sodipodi-0.dtd"
   xmlns:xlink="http://www.w3.org/1999/xlink"
   xmlns="http://www.w3.org/2000/svg"
   xmlns:svg="http://www.w3.org/2000/svg">
  <defs
     id="defs6">
    <linearGradient
       inkscape:collect="always"
       id="linearGradient917">
      <stop
         style="stop-color:#ffffff;stop-opacity:1;"
         offset="0.8209765"
         id="stop913" />
      <stop
         style="stop-color:#ffffff;stop-opacity:0.74371856;"
         offset="1"
         id="stop915" />
    </linearGradient>
    <linearGradient
       inkscape:collect="always"
       id="linearGradient1375">
      <stop
         style="stop-color:#00009b;stop-opacity:1;"
         offset="0"
         id="stop1371" />
      <stop
         style="stop-color:#1f1fff;stop-opacity:1;"
         offset="1"
         id="stop1373" />
    </linearGradient>
    <linearGradient
       inkscape:collect="always"
       xlink:href="#linearGradient1375"
       id="linearGradient1377"
       x1="-0.018188477"
       y1="512"
       x2="1024.0182"
       y2="512"
       gradientUnits="userSpaceOnUse"
       gradientTransform="matrix(1.1718334,0,0,1.1717923,-87.978691,-1111.9578)" />
    <radialGradient
       inkscape:collect="always"
       xlink:href="#linearGradient917"
       id="radialGradient919"
       cx="512.67869"
       cy="468.41017"
       fx="512.67869"
       fy="468.41017"
       r="305.44826"
       gradientTransform="matrix(1,0,0,0.88507861,0,53.830348)"
       gradientUnits="userSpaceOnUse" />
  </defs>
  <sodipodi:namedview
     id="namedview4"
     pagecolor="#ffffff"
     bordercolor="#000000"
     borderopacity="0.25"
     inkscape:showpageshadow="2"
     inkscape:pageopacity="0.0"
     inkscape:pagecheckerboard="0"
     inkscape:deskcolor="#d1d1d1"
     showgrid="false"
     inkscape:zoom="0.76660156"
     inkscape:cx="452.64714"
     inkscape:cy="571.35287"
     inkscape:window-width="1861"
     inkscape:window-height="1010"
     inkscape:window-x="0"
     inkscape:window-y="0"
     inkscape:window-maximized="1"
     inkscape:current-layer="layer1" />
  <g
     inkscape:groupmode="layer"
     id="layer1"
     inkscape:label="background"
     style="fill:#0000ff"
     transform="translate(88,88)">
    <rect
       style="fill:url(#linearGradient1377);fill-opacity:1;stroke:none;stroke-width:0.88578"
       id="rect689"
       width="1200"
       height="1200"
       x="-88"
       y="-1112"
       transform="rotate(90)" />
  </g>
  <g
     inkscape:groupmode="layer"
     inkscape:label="Image"
     id="g8"
     transform="translate(88,88)">
    <g
       id="g792"
       transform="translate(-0.67869,43.589827)"
       style="fill-opacity:1;fill:url(#radialGradient919)">
      <path
         id="rect463"
         style="fill:url(#radialGradient919);stroke:none;stroke-width:0.755906;fill-opacity:1"
         d="m 760.90234,712.1875 c -24.8893,7.01747 -48.22398,18.18098 -74.77936,18.24237 -10.06242,2.08058 -43.91949,5.57476 -14.62434,7.96075 31.44348,2.47347 64.12413,-7.76333 89.4037,-26.20312 z" />
      <path
         id="path562"
         style="fill:url(#radialGradient919);stroke:none;stroke-width:0.755906;fill-opacity:1"
         d="m 532.57812,709.52734 c 16.66491,7.30807 54.9032,19.39803 58.61198,24.02817 -21.2791,-2.30977 -40.81345,-12.90773 -58.61198,-24.02817 z" />
      <path
         id="path558"
         style="fill:url(#radialGradient919);stroke:none;stroke-width:0.755906;fill-opacity:1"
         d="m 769.5,679.5293 c -16.88688,23.28719 -42.36153,45.88219 -73.29867,41.17979 -12.18555,0.0249 -37.47653,-4.09738 -10.70133,-7.22667 29.48714,-6.91357 58.32524,-17.73153 84,-33.95312 z m -8.59766,32.6582 c -28.80391,20.53482 -68.62101,32.99908 -102.93942,23.0938 27.27906,-7.33116 57.32206,-3.68792 82.63867,-17.44922 6.63462,-2.25166 13.46014,-4.20805 20.30075,-5.64458 z" />
      <path
         id="path556"
         style="fill:url(#radialGradient919);stroke:none;stroke-width:0.755906;fill-opacity:1"
         d="m 372.85547,675.03125 c 13.84924,25.22704 -26.07513,50.04874 -32.09802,52.8347 21.9118,1.21377 50.50176,-14.93479 40.71521,-40.58665 -2.18175,-4.50963 -4.96547,-8.77403 -8.61719,-12.24805 z" />
      <path
         id="path550"
         style="fill:url(#radialGradient919);stroke:none;stroke-width:0.755906;fill-opacity:1"
         d="m 361.16211,649.01367 c 51.40864,2.01476 79.38451,53.26811 126.08789,67.49805 16.37458,8.29238 -32.37931,-3.81663 -40.28931,-9.85351 -32.36976,-13.8233 -58.60401,-39.55915 -87.71655,-57.54493 l 1.91797,-0.0996 z" />
      <path
         id="path548"
         style="fill:url(#radialGradient919);stroke:none;stroke-width:0.755906;fill-opacity:1"
         d="m 811.20312,643.5 c -15.48555,20.07343 -43.72376,38.73393 -52.0371,58.61719 24.76446,-10.0741 48.40967,-30.81499 52.0371,-58.61719 z" />
      <path
         id="path546"
         style="fill:url(#radialGradient919);stroke:none;stroke-width:0.755906;fill-opacity:1"
         d="m 209.90039,632 c -5.53342,28.52733 10.43186,57.25377 34.56052,72.17773 -15.88544,0.27905 -54.5367,-29.57189 -26.51953,0.10743 34.65623,27.02341 86.37295,29.7297 124.76542,9.39773 29.43207,-11.89812 24.94679,-61.29558 -8.08831,-63.56974 -28.83341,-11.98348 -43.29087,42.03952 -9.84313,33.94158 6.51843,-9.36158 4.13971,-24.56611 15.70117,-6.63068 -0.20883,34.3239 -49.24613,29.05928 -70.9375,19.01953 C 241.24358,685.10107 218.78622,660.72261 209.90039,632 Z" />
      <path
         id="path544"
         style="fill:url(#radialGradient919);stroke:none;stroke-width:0.755906;fill-opacity:1"
         d="m 379.60165,629.22793 c -17.16794,0.1589 -34.6191,1.954 -50.81014,7.92594 -4.32642,4.05833 9.06765,1.6062 12.5675,2.53734 25.61934,-1.13111 51.11365,4.94152 74.75456,14.47021 32.19752,13.64709 60.8186,34.02389 90.81585,51.68474 6.71939,3.71442 19.03984,10.40669 20.75306,10.10357 -11.29333,-7.46973 -21.25254,-16.76479 -31.50315,-25.5659 -14.40245,-13.04998 -27.159,-28.12114 -43.82182,-38.47427 -18.48654,-13.51159 -41.11523,-20.29887 -63.72489,-22.34582 -3.00471,-0.22485 -6.01787,-0.33755 -9.03097,-0.33581 z" />
      <path
         id="path538"
         style="fill:url(#radialGradient919);stroke:none;stroke-width:0.755906;fill-opacity:1"
         d="m 687.52548,601.99941 c 1.55966,4.21246 3.4473,8.55217 2.63051,13.16268 -0.78218,7.45874 -6.03689,13.40523 -11.85247,17.67717 -12.35347,9.49216 -28.07134,13.66465 -43.42197,14.51606 -12.21504,1.28131 -24.56551,0.27644 -36.78975,-0.54937 -2.23912,-0.0873 -5.01843,-0.91994 -2.99166,0.76286 3.16526,2.64411 8.10417,2.92771 11.98848,4.47655 13.94696,4.41922 28.66929,6.35961 43.27982,5.35072 5.79316,-0.23266 11.46287,-1.56196 16.99045,-3.17063 11.59176,-2.64167 21.23787,-11.00599 27.69364,-20.73411 3.79678,-6.24632 7.29942,-13.87166 4.59637,-21.23613 -1.74278,-5.3629 -6.55437,-9.42157 -12.12342,-10.2558 z" />
      <path
         id="path534"
         style="fill:url(#radialGradient919);stroke:none;stroke-width:0.755906;fill-opacity:1"
         d="m 512.32227,601.34375 c 34.90772,14.85338 69.35787,37.39895 108.59375,36.27344 -35.79428,-13.296 -69.31147,-35.0833 -108.59375,-36.27344 z" />
      <path
         id="path530"
         style="fill:url(#radialGradient919);stroke:none;stroke-width:0.755906;fill-opacity:1"
         d="m 621.5,598.5 c -22.60482,13.99208 19.59515,39.48807 13.89233,27.52627 C 625.82085,619.86461 621.65948,609.52361 621.5,598.5 Z" />
      <path
         id="path528"
         style="fill:url(#radialGradient919);stroke:none;stroke-width:0.755906;fill-opacity:1"
         d="m 248.5,564.66602 c -21.79832,9.48099 -33.08399,33.85297 -30.34182,56.83398 7.857,-19.78918 15.17812,-41.28826 30.34182,-56.83398 z" />
      <path
         id="path524"
         style="fill:url(#radialGradient919);stroke:none;stroke-width:0.755906;fill-opacity:1"
         d="m 755.5,562.98438 c 20.07836,-1.08343 44.05501,3.10007 52.021,24.48298 12.23143,31.14465 -11.14856,66.42755 -41.19288,76.05608 19.20629,-19.18367 36.01247,-50.24816 20.78411,-76.76599 C 780.18571,574.8841 768.35555,567.12366 755.5,562.98438 Z M 811.20312,643.5 c -3.7744,28.06488 -28.23118,50.08721 -53.62695,58.77344 14.38861,-23.31961 36.69648,-37.72645 53.62695,-58.77344 z" />
      <path
         id="path520"
         style="fill:url(#radialGradient919);stroke:none;stroke-width:0.755906;fill-opacity:1"
         d="m 490.64258,557.31055 c -36.3253,21.89947 -79.57043,24.2605 -120.64258,28.35152 38.75222,-14.33146 80.25301,-20.246 120.64258,-28.35152 z" />
      <path
         id="path518"
         style="fill:url(#radialGradient919);stroke:none;stroke-width:0.755906;fill-opacity:1"
         d="m 306.44149,547.99941 c -5.40539,3.14104 -10.27686,7.07882 -15.27713,10.80505 -3.15184,2.43425 -6.15522,5.10111 -8.85082,8.0175 -2.7984,3.32991 -5.47044,7.21324 -5.66979,11.7114 -0.005,0.66153 -0.18273,2.04683 0.61395,0.92864 5.49321,-5.10452 10.9559,-10.25345 16.00253,-15.80718 4.52123,-4.97878 9.08189,-9.9585 13.0224,-15.41923 z" />
      <path
         id="path514"
         style="fill:url(#radialGradient919);stroke:none;stroke-width:0.755906;fill-opacity:1"
         d="m 584.98641,530.17715 c -15.03106,12.45375 -29.53791,25.61753 -45.73574,36.58182 -4.66385,3.2337 -9.52836,6.17521 -14.5416,8.83419 -0.21165,0.94267 -4.31045,2.33232 -4.202,2.75933 16.90823,-3.04155 33.17371,-10.40699 46.05662,-21.85532 7.69235,-6.69777 15.36011,-14.4981 18.06434,-24.6375 0.1391,-0.55641 0.25917,-1.11762 0.35838,-1.68252 z" />
      <path
         id="path510"
         style="fill:url(#radialGradient919);stroke:none;stroke-width:0.755906;fill-opacity:1"
         d="m 557.00009,529.75137 c -27.57557,19.75721 -56.39967,38.42793 -88.38081,50.23635 25.60897,-3.14547 51.20336,-12.23208 70.82419,-29.39797 6.84419,-6.02118 12.82597,-13.04117 17.55662,-20.83838 z" />
      <path
         id="path502"
         style="fill:url(#radialGradient919);stroke:none;stroke-width:0.755906;fill-opacity:1"
         d="m 669.56445,450.12695 c -19.54401,36.5224 -58.44724,54.65082 -96.06445,66.79883 40.7194,1.3868 92.68445,-20.6324 96.06445,-66.79883 z" />
      <path
         id="path500"
         style="fill:url(#radialGradient919);stroke:none;stroke-width:0.755906;fill-opacity:1"
         d="m 763.40048,430.99941 c -8.30019,5.30754 -17.51327,8.93694 -26.71485,12.34571 -8.93607,0.49108 -17.04938,4.86223 -24.18111,9.96251 -7.45099,3.81677 -14.38824,8.77033 -19.96928,15.0453 -3.2267,1.36614 -6.73655,2.53998 -9.40233,4.81027 -1.18438,0.50127 -3.90855,1.18791 -1.07715,0.82091 4.52187,-0.19116 9.0479,-0.51581 13.48639,-1.50153 8.50285,-1.6554 16.94577,-3.85221 24.86951,-7.39756 11.70356,-4.78188 22.67986,-11.50216 32.01239,-20.04858 4.32765,-4.09702 8.14527,-8.77861 10.97643,-14.03703 z" />
      <path
         id="path496"
         style="fill:url(#radialGradient919);stroke:none;stroke-width:0.755906;fill-opacity:1"
         d="M 726.43359,410.30273 C 711.42853,423.86185 694.90715,439.09181 680,450.98302 c -5.30592,31.89124 33.03178,-12.50861 38.6631,-23.83828 2.89011,-5.46393 5.71196,-11.00087 7.77049,-16.84201 z" />
      <path
         id="path494"
         style="fill:url(#radialGradient919);stroke:none;stroke-width:0.755906;fill-opacity:1"
         d="m 761.95508,376.61523 c -4.97185,25.4727 -27.92857,41.29082 -39.06641,63.65625 28.43488,-4.62074 48.11998,-36.30801 39.06641,-63.65625 z" />
      <path
         id="path486"
         style="fill:url(#radialGradient919);stroke:none;stroke-width:0.755906;fill-opacity:1"
         d="m 378.64258,306.16016 c 22.84137,10.44374 30.4261,45.9317 6.60547,59.63086 -17.02067,9.82204 15.68497,-19.92095 5.50241,-30.7189 -0.87569,-10.69183 -6.8063,-20.09504 -12.10788,-28.91196 z" />
      <path
         id="path482"
         style="fill:url(#radialGradient919);stroke:none;stroke-width:0.755906;fill-opacity:1"
         d="m 818.12695,304.88281 c -5.31612,24.69917 -30.07224,42.46036 -54.12909,44.82227 19.83514,-12.6919 39.21137,-26.29573 54.12909,-44.82227 z" />
      <path
         id="path478"
         style="fill:url(#radialGradient919);stroke:none;stroke-width:0.755906;fill-opacity:1"
         d="m 358.6543,283.33984 c 36.06546,-2.05994 62.23013,25.06012 88.60588,45.14505 9.09787,7.90625 48.20677,19.52872 16.03315,13.48437 -40.48133,-6.82969 -65.92802,-42.68676 -103.22692,-56.0259 -3.89281,0.14296 -9.21871,-2.54315 -1.41211,-2.60352 z" />
      <path
         id="path474"
         style="fill:url(#radialGradient919);stroke:none;stroke-width:0.755906;fill-opacity:1"
         d="m 376.28915,266.0834 c -16.79674,0.38806 -33.52955,3.56543 -49.28906,9.39258 7.13685,1.21636 16.94936,-0.21218 25.36357,-0.10878 30.44675,-0.83961 59.95492,10.31618 86.05244,25.2162 30.10526,16.56787 60.05438,37.02009 95.25182,39.99791 8.84097,0.48929 17.88401,0.3118 26.5555,-1.45154 6.96573,-2.33371 -8.62927,-6.50578 -12.36752,-8.07178 -40.1547,-13.74164 -74.03063,-41.08216 -114.14894,-54.97615 -18.33532,-6.87193 -37.81992,-10.46867 -57.41781,-9.99844 z" />
      <path
         id="path470"
         style="fill:url(#radialGradient919);stroke:none;stroke-width:0.755906;fill-opacity:1"
         d="m 794.99805,222 c 18.32123,40.54713 -4.71229,84.34984 -31.99445,114.5432 -22.82524,23.45604 21.19924,-9.86444 26.70247,-16.08566 27.04732,-22.03906 35.91939,-65.93255 11.03979,-92.91457 l -3.58789,-3.92578 z" />
      <path
         id="path490"
         style="fill:url(#radialGradient919);stroke:none;stroke-width:0.755906;fill-opacity:1"
         d="m 761.70126,323.92715 c -3.59523,1.37482 -6.50141,4.08042 -9.98828,5.6875 -69.40133,41.28995 -156.77582,26.56203 -226.26953,67.85937 8.84753,4.49209 56.37052,-6.53896 78.86523,-4.51562 1.44033,3.61399 -35.72466,7.49234 -48.61328,9.20508 -54.12608,2.92398 -108.19768,16.34902 -154.41406,45.45117 45.99803,-17.66527 95.561,-27.20258 144.87695,-24.0293 -36.30077,6.71454 -73.59976,10.40332 -108.6582,22.89453 69.3334,2.37774 140.83744,4.01324 207.27929,-19.0332 -49.58078,33.48192 -112.35929,39.05055 -170.32031,31.15039 -56.85163,-10.61904 -119.69067,-1.80261 -165.125,36.07031 35.81246,-17.47158 75.33517,-26.48483 115.16602,-26.69922 -35.56305,7.94759 -70.78047,22.06385 -97.23633,47.87891 -25.01332,31.05894 14.7711,-6.0611 29.80664,-6.80078 -26.78889,21.75573 -53.79878,45.28658 -69.73438,76.52148 -11.84996,19.54355 -0.0117,6.87203 8.61914,-2.57812 54.39534,-47.23536 126.91181,-67.7317 197.8125,-71.36328 51.93383,-5.17764 111.24839,-10.10975 149.28907,-50.06055 -29.4154,8.13104 -60.69054,12.33868 -91.40235,9.02734 26.75062,-4.81601 57.73723,-11.1226 84.42969,-22.30273 41.54703,-18.08517 90.79575,-38.82825 107.38867,-84.75586 -32.49526,25.01103 -70.76688,44.00622 -111.69531,50.66992 -6.51949,2.06359 -56.8058,6.21651 -28.77734,1.29688 62.05213,-8.65601 121.86399,-40.42482 158.70117,-91.57422 z m 0.2539,52.6875 c -5.04475,25.72554 -27.90115,41.15234 -39.0664,63.65625 28.36208,-4.49797 48.15721,-36.44137 39.0664,-63.65625 z m -35.52148,33.6875 c -5.68879,3.74551 -10.22234,8.92641 -15.13281,13.58008 -8.91633,15.84624 -36.61668,18.34621 -31.97461,39.70898 19.70675,-6.63284 39.63403,-31.0291 47.10742,-53.28906 z m -56.86914,39.82422 c -9.46267,14.67074 -19.99,28.82145 -34.83008,38.48242 -14.238,13.0928 -50.68592,22.41184 -58.82422,28.33203 40.23492,0.97696 90.15192,-21.90678 93.6543,-66.81445 z m -164.31055,22.84179 c 1.69851,-0.006 3.39536,0.004 5.0918,0.0312 l 3.47656,0.51172 c -53.44518,10.75176 -106.93904,24.53352 -155.63672,49.58594 40.98192,-33.52901 94.41475,-49.93152 147.06836,-50.12891 z m 58.7461,37.625 c -6.69437,1.43696 -13.13817,3.81281 -19.85352,5.17774 -56.42253,10.94811 -115.80006,7.52936 -169.64453,30.60937 -43.90163,17.91767 -91.55206,45.20579 -108.60352,92.11914 1.00594,-28.39559 -7.56546,-61.65906 15.20118,-84.35351 17.84051,-15.27289 0.35451,-9.14542 -9.6836,-0.87695 -36.52513,25.28482 -35.36973,79.49759 -10.59375,112.58203 -8.88903,-3.38154 -27.25636,-25.8154 -27.6582,-42.3418 1.22575,-24.99611 -7.43092,-0.68848 -6.96289,9.61914 -1.87931,42.77315 45.29871,71.89505 84.29883,65.91602 -15.27293,-3.52215 -28.38439,-29.6754 -15.50196,-46.41797 23.32612,-31.29887 67.49444,-33.78057 103.3711,-31.66016 58.16223,3.96478 96.85428,51.83366 143.4414,80.35938 35.51733,23.83664 80.15483,32.41566 121.74414,22.45312 -60.05589,-5.97091 -116.68503,-32.67953 -161.94921,-72.18164 26.5673,14.2782 52.77447,29.92865 81.4375,39.89258 52.26418,19.90606 120.34956,24.16014 162.96484,-18.1582 25.91246,-25.70046 22.54578,-72.03028 -6.40039,-94.11524 20.21877,7.763 33.594,28.15947 35.33594,49.42774 3.82317,7.71809 10.78263,-37.87516 -4.42383,-44.42969 -30.0456,-26.49455 -79.5521,-32.25818 -113.94531,-10.74024 -30.11989,12.32586 -24.11188,64.67519 13.48437,53.44532 23.79534,-6.09365 -1.84634,-6.96513 -3.44336,-19.49024 5.6265,-36.56484 62.83655,-9.37083 44.13477,21.38477 -17.98054,36.30126 -66.21694,44.2916 -101.8086,32.62304 -47.55594,-17.70427 -85.88425,-56.17385 -137.39843,-64.33984 -62.56637,-14.30202 -134.73646,-8.1129 -184.03907,36.74024 22.18306,-30.93231 58.08723,-48.17326 92.78516,-61.25782 60.09467,-24.22424 130.68973,-21.3394 183.71094,-61.98633 z m 163.14062,88.58008 c 26.48348,25.45584 8.74248,68.96437 -23.74805,78.3125 25.5408,-16.09409 35.14665,-50.64174 23.74805,-78.3125 z m -292.64062,4.78321 c 41.1852,4.78802 81.64606,21.53023 114.25,46.99023 -38.479,-14.71648 -74.76341,-34.90592 -114.25,-46.99023 z"
         inkscape:label="restofZ" />
      <path
         id="path468"
         style="fill:url(#radialGradient919);stroke:none;stroke-width:0.755906;fill-opacity:1"
         d="m 743.47852,198.26367 c -11.76096,-1.04715 -50.35436,2.11647 -17.22071,7.54492 33.72412,9.48098 17.62727,55.13664 -9.64118,61.77917 -11.82651,5.1861 -26.97655,7.82875 -7.60956,-0.65521 35.62432,-13.80643 18.52848,-63.02323 -17.16685,-57.26317 -13.23567,-0.98974 -54.89976,2.74937 -21.27664,5.24817 41.9273,-0.72337 26.73453,47.86188 -5.80187,49.93206 -62.5939,15.12497 -125.11841,-9.05287 -186.3125,-20.00586 20.65809,-4.95951 53.82715,2.05959 78.55078,6.63086 33.96346,6.13102 72.61014,13.28118 104.22852,-4.50977 9.58221,-5.26075 18.32304,-20.29562 1.5637,-7.1881 -51.83362,21.80681 -106.80983,-2.56135 -159.12778,-9.75634 -47.88429,-6.76751 -97.36425,-3.90426 -143.66444,10.39952 47.2124,-25.70196 102.9206,-29.01955 155.5,-24.47656 -63.51649,-18.63196 -136.18843,-10.76746 -192.51478,24.77061 -8.87532,3.72198 -39.11875,39.62037 -20.52647,12.26259 8.89718,-22.05258 50.80156,-39.7211 58.11391,-44.69051 -46.95546,4.85497 -86.65743,45.22122 -89.0348,92.67495 -4.00435,-12.21087 0.63866,-42.66226 13.45679,-56.53364 7.57424,-8.91005 21.66378,-23.177 1.16529,-8.07384 -32.13566,22.38936 -47.46512,72.335 -19.22266,103.76562 10.86211,9.03609 15.49078,15.22109 -0.0642,6.04254 -20.58076,-4.09489 -32.05665,-54.05591 -30.91908,-47.80075 -6.75114,22.90194 5.6594,47.77788 23.87191,60.47305 -17.29251,0.93177 -45.70221,-24.05578 -52.59547,-20.14453 27.62611,51.84676 114.38418,61.76336 147.53125,10.71289 6.65425,-11.06693 4.65101,-41.06445 9.01758,-12.18359 5.55299,24.91527 -28.70792,46.56355 -37.90235,50.28516 35.3441,-3.52726 64.4839,-45.57911 44.58109,-78.05736 -13.97849,-25.35981 -62.63352,-26.48826 -68.96973,4.92454 -6.67251,26.39491 42.35844,24.21954 24.54107,-0.37113 38.64582,4.18109 -0.18098,57.41813 -24.76757,31.46103 -24.31199,-20.23608 -8.3587,-57.11946 16.11482,-69.31923 52.60998,-31.63023 118.33652,-15.73173 169.22544,11.34552 36.39063,17.46211 72.04614,39.75562 112.16484,46.93986 15.26523,0.0243 30.53045,0.0487 45.79568,0.073 -49.98926,10.1413 -100.23308,27.68673 -139.5625,61.16602 48.57326,-32.02333 107.81446,-39.35768 164.19197,-47.55749 43.87272,-8.24113 95.58732,-23.03862 114.93108,-67.85268 13.11408,-26.74001 8.9944,-68.48974 -23.52151,-78.69531 -5.49887,-1.95812 -11.30245,-2.9906 -17.12311,-3.297 z m 25.88671,72.40039 C 742.517,306.29874 695.09723,318.11433 652.76709,322.19065 598.86068,326.18597 549.47018,298.96823 504,273.51367 c 61.92233,21.94199 128.09369,44.12678 194.4838,30.28767 26.00641,-4.92239 50.50507,-16.1928 70.88143,-33.13728 z"
         inkscape:label="topofZ" />
    </g>
  </g>
</svg>
